<svg aria-hidden="true" style="position: absolute; width: 0; height: 0; overflow: hidden;" version="1.1" xmlns="http://www.w3.org/2000/svg" xmlns:xlink="http://www.w3.org/1999/xlink">
<defs>
<symbol id="icon-undo2" viewBox="0 0 32 32">
<path d="M23.808 32c3.554-6.439 4.153-16.26-9.808-15.932v7.932l-12-12 12-12v7.762c16.718-0.436 18.58 14.757 9.808 24.238z"></path>
</symbol>
<symbol id="icon-redo2" viewBox="0 0 32 32">
<path d="M18 7.762v-7.762l12 12-12 12v-7.932c-13.961-0.328-13.362 9.493-9.808 15.932-8.772-9.482-6.909-24.674 9.808-24.238z"></path>
</symbol>
<symbol id="icon-forward" viewBox="0 0 32 32">
<path d="M8.192 0c-3.554 6.439-4.153 16.259 9.808 15.932v-7.932l12 12-12 12v-7.762c-16.718 0.436-18.58-14.757-9.808-24.238z"></path>
</symbol>
<symbol id="icon-reply" viewBox="0 0 32 32">
<path d="M14 24.238v7.762l-12-12 12-12v7.932c13.961 0.327 13.362-9.493 9.808-15.932 8.772 9.482 6.909 24.674-9.808 24.238z"></path>
</symbol>
<symbol id="icon-point-right" viewBox="0 0 32 32">
<path d="M13 30h5c1.654 0 3-1.346 3-3 0-0.535-0.14-1.037-0.387-1.472 0.833-0.534 1.387-1.467 1.387-2.528 0-0.768-0.29-1.469-0.766-2 0.476-0.531 0.766-1.232 0.766-2 0-0.35-0.060-0.687-0.171-1h7.171c1.654 0 3-1.346 3-3s-1.346-3-3-3h-12.334l2.932-5.501c0.262-0.454 0.401-0.973 0.401-1.499 0-1.654-1.346-3-3-3-0.824 0-1.592 0.327-2.163 0.922-0.007 0.008-0.015 0.015-0.022 0.023l-6.815 7.474v-1.419c0-0.552-0.448-1-1-1h-6c-0.552 0-1 0.448-1 1v20c0 0.552 0.448 1 1 1h6c0.552 0 1-0.448 1-1v-1.382l4.553 2.276c0.139 0.069 0.292 0.106 0.447 0.106zM5 28c-0.552 0-1-0.448-1-1s0.448-1 1-1 1 0.448 1 1-0.448 1-1 1zM13.236 28l-5.236-2.618v-11.995l8.287-9.088c0.19-0.193 0.443-0.299 0.713-0.299 0.551 0 1 0.449 1 1 0 0.171-0.041 0.332-0.122 0.479-0.010 0.017-0.020 0.033-0.029 0.051l-3.732 7c-0.165 0.31-0.156 0.684 0.025 0.985s0.506 0.485 0.857 0.485h14c0.551 0 1 0.449 1 1s-0.449 1-1 1h-10c-0.552 0-1 0.448-1 1s0.448 1 1 1c0.551 0 1 0.449 1 1s-0.449 1-1 1c-0.552 0-1 0.448-1 1s0.448 1 1 1c0.551 0 1 0.449 1 1s-0.449 1-1 1h-1c-0.552 0-1 0.448-1 1s0.448 1 1 1c0.551 0 1 0.449 1 1s-0.449 1-1 1h-4.764z"></path>
</symbol>
<symbol id="icon-point-left" viewBox="0 0 32 32">
<path d="M19 30h-5c-1.654 0-3-1.346-3-3 0-0.535 0.14-1.037 0.386-1.472-0.833-0.534-1.386-1.467-1.386-2.528 0-0.768 0.29-1.469 0.766-2-0.476-0.531-0.766-1.232-0.766-2 0-0.35 0.060-0.687 0.171-1h-7.171c-1.654 0-3-1.346-3-3s1.346-3 3-3h12.334l-2.932-5.501c-0.262-0.454-0.401-0.973-0.401-1.499 0-1.654 1.346-3 3-3 0.824 0 1.592 0.327 2.163 0.921 0.007 0.008 0.015 0.015 0.022 0.023l6.815 7.474v-1.419c0-0.552 0.448-1 1-1h6c0.552 0 1 0.448 1 1v20c0 0.552-0.448 1-1 1h-6c-0.552 0-1-0.448-1-1v-1.382l-4.553 2.276c-0.139 0.069-0.292 0.106-0.447 0.106zM27 28c0.552 0 1-0.448 1-1s-0.448-1-1-1-1 0.448-1 1 0.448 1 1 1zM18.764 28l5.236-2.618v-11.995l-8.287-9.088c-0.19-0.193-0.443-0.299-0.713-0.299-0.551 0-1 0.449-1 1 0 0.171 0.041 0.332 0.122 0.479 0.010 0.017 0.020 0.033 0.029 0.051l3.732 7c0.165 0.31 0.156 0.684-0.025 0.985s-0.506 0.485-0.857 0.485h-14c-0.551 0-1 0.449-1 1s0.449 1 1 1h10c0.552 0 1 0.448 1 1s-0.448 1-1 1c-0.551 0-1 0.449-1 1s0.449 1 1 1c0.552 0 1 0.448 1 1s-0.448 1-1 1c-0.551 0-1 0.449-1 1s0.449 1 1 1h1c0.552 0 1 0.448 1 1s-0.448 1-1 1c-0.551 0-1 0.449-1 1s0.449 1 1 1h4.764z"></path>
</symbol>
<symbol id="icon-arrow-right" viewBox="0 0 32 32">
<path d="M31 16l-15-15v9h-16v12h16v9z"></path>
</symbol>
<symbol id="icon-arrow-left" viewBox="0 0 32 32">
<path d="M1 16l15 15v-9h16v-12h-16v-9z"></path>
</symbol>
<symbol id="icon-arrow-right2" viewBox="0 0 32 32">
<path d="M19.414 27.414l10-10c0.781-0.781 0.781-2.047 0-2.828l-10-10c-0.781-0.781-2.047-0.781-2.828 0s-0.781 2.047 0 2.828l6.586 6.586h-19.172c-1.105 0-2 0.895-2 2s0.895 2 2 2h19.172l-6.586 6.586c-0.39 0.39-0.586 0.902-0.586 1.414s0.195 1.024 0.586 1.414c0.781 0.781 2.047 0.781 2.828 0z"></path>
</symbol>
<symbol id="icon-arrow-left2" viewBox="0 0 32 32">
<path d="M12.586 27.414l-10-10c-0.781-0.781-0.781-2.047 0-2.828l10-10c0.781-0.781 2.047-0.781 2.828 0s0.781 2.047 0 2.828l-6.586 6.586h19.172c1.105 0 2 0.895 2 2s-0.895 2-2 2h-19.172l6.586 6.586c0.39 0.39 0.586 0.902 0.586 1.414s-0.195 1.024-0.586 1.414c-0.781 0.781-2.047 0.781-2.828 0z"></path>
</symbol>
<symbol id="icon-circle-right" viewBox="0 0 32 32">
<path d="M16 0c-8.837 0-16 7.163-16 16s7.163 16 16 16 16-7.163 16-16-7.163-16-16-16zM16 29c-7.18 0-13-5.82-13-13s5.82-13 13-13 13 5.82 13 13-5.82 13-13 13z"></path>
<path d="M11.086 22.086l2.829 2.829 8.914-8.914-8.914-8.914-2.828 2.828 6.086 6.086z"></path>
</symbol>
<symbol id="icon-circle-left" viewBox="0 0 32 32">
<path d="M16 32c8.837 0 16-7.163 16-16s-7.163-16-16-16-16 7.163-16 16 7.163 16 16 16zM16 3c7.18 0 13 5.82 13 13s-5.82 13-13 13-13-5.82-13-13 5.82-13 13-13z"></path>
<path d="M20.914 9.914l-2.829-2.829-8.914 8.914 8.914 8.914 2.828-2.828-6.086-6.086z"></path>
</symbol>
</defs>
</svg>
